PathFileType	4	(X/Y/Z)	RBDS011static.trc
DataRate	CameraRate	NumFrames	NumMarkers	Units	OrigDataRate	OrigDataStartFrame	OrigNumFrames
150.000000	150.000000	4	48	mm	150.000000	56	150
Frame#	Time	L.Ankle			L.Ankle.Medial			L.ASIS			L.GTR			L.Heel.Bottom			L.Heel.Lateral			L.Heel.Top			L.HF			L.Iliac.Crest			L.Knee			L.Knee.Medial			L.MT1			L.MT2			L.MT5			L.PSIS			L.Shank.Bottom.Lateral			L.Shank.Bottom.Medial			L.Shank.Top.Lateral			L.Shank.Top.Medial			L.Thigh.Bottom.Lateral			L.Thigh.Bottom.Medial			L.Thigh.Top.Lateral			L.Thigh.Top.Medial			L.TT			R.Ankle			R.Ankle.Medial			R.ASIS			R.GTR			R.Heel.Bottom			R.Heel.Lateral			R.Heel.Top			R.HF			R.Iliac.Crest			R.Knee			R.Knee.Medial			R.MT1			R.MT2			R.MT5			R.PSIS			R.Shank.Bottom.Lateral			R.Shank.Bottom.Medial			R.Shank.Top.Lateral			R.Shank.Top.Medial			R.Thigh.Bottom.Lateral			R.Thigh.Bottom.Medial			R.Thigh.Top.Lateral			R.Thigh.Top.Medial			R.TT			
		X1	Y1	Z1	X2	Y2	Z2	X3	Y3	Z3	X4	Y4	Z4	X5	Y5	Z5	X6	Y6	Z6	X7	Y7	Z7	X8	Y8	Z8	X9	Y9	Z9	X10	Y10	Z10	X11	Y11	Z11	X12	Y12	Z12	X13	Y13	Z13	X14	Y14	Z14	X15	Y15	Z15	X16	Y16	Z16	X17	Y17	Z17	X18	Y18	Z18	X19	Y19	Z19	X20	Y20	Z20	X21	Y21	Z21	X22	Y22	Z22	X23	Y23	Z23	X24	Y24	Z24	X25	Y25	Z25	X26	Y26	Z26	X27	Y27	Z27	X28	Y28	Z28	X29	Y29	Z29	X30	Y30	Z30	X31	Y31	Z31	X32	Y32	Z32	X33	Y33	Z33	X34	Y34	Z34	X35	Y35	Z35	X36	Y36	Z36	X37	Y37	Z37	X38	Y38	Z38	X39	Y39	Z39	X40	Y40	Z40	X41	Y41	Z41	X42	Y42	Z42	X43	Y43	Z43	X44	Y44	Z44	X45	Y45	Z45	X46	Y46	Z46	X47	Y47	Z47	X48	Y48	Z48	

57	0.3733333333333334	714.0226440429688	107.4728012084961	1037.255859375	735.5128173828125	120.8205032348633	1120.535034179688	881.3043212890625	1028.918823242188	1087.817749023438	822.7310180664063	919.8823852539063	1033.206176757813	639.0177612304688	42.66987609863281	1083.8994140625	663.4075317382813	57.31303787231445	1044.918823242188	649.673583984375	91.33360290527344	1085.591430664063	751.7323608398438	471.3297424316406	1035.5712890625	810.3453369140625	1089.389404296875	1050.116455078125	756.9625244140625	537.7174072265625	1040.819458007813	761.7578125	517.8212890625	1161.994873046875	864.8648071289063	54.45148086547852	1124.95361328125	876.6151733398438	66.31266784667969	1077.390502929688	836.2797241210938	49.43486785888672	1009.186828613281	706.9464721679688	1043.288208007813	1152.218139648438	707.5776977539063	189.0551910400391	1035.296997070313	672.6675415039063	193.1419219970703	1077.896240234375	705.0758666992188	269.0671997070313	1026.387817382813	672.5758056640625	273.669677734375	1069.608764648438	778.9523315429688	646.4592895507813	1026.683715820313	717.8961791992188	647.2523193359375	1066.761108398438	772.9312133789063	756.6356201171875	1021.744445800781	718.8648681640625	757.77685546875	1064.734985351563	813.7056274414063	456.022705078125	1080.948974609375	714.2286987304688	107.7763061523438	1416.008544921875	736.5567626953125	126.088020324707	1334.040893554688	863.644287109375	1033.1728515625	1342.687255859375	803.0609741210938	924.6657104492188	1397.24365234375	640.0521850585938	43.89654541015625	1374.7109375	666.7183837890625	64.33478546142578	1414.699584960938	650.8176879882813	93.76349639892578	1373.66943359375	750.9757690429688	476.6322326660156	1409.204956054688	797.5637817382813	1081.758178710938	1368.811645507813	760.4739379882813	539.027587890625	1402.775146484375	764.6316528320313	523.31787109375	1280.604370117188	861.87353515625	57.79922866821289	1327.253540039063	870.5374145507813	71.4725341796875	1372.980346679688	841.9581909179688	49.22245025634766	1444.37939453125	699.5573120117188	1046.874755859375	1253.901611328125	701.3934936523438	182.2565460205078	1414.088134765625	669.5078735351563	190.8129577636719	1374.955688476563	705.5621948242188	266.5070190429688	1425.383544921875	671.5496826171875	270.2307739257813	1383.94287109375	759.5015869140625	655.2725219726563	1407.976684570313	707.3545532226563	655.3776245117188	1355.342651367188	754.7920532226563	764.79150390625	1409.032592773438	706.5513916015625	765.942626953125	1359.59716796875	812.4215698242188	460.3294677734375	1371.949584960938	
58	0.38	714.0240478515625	107.4634170532227	1037.251342773438	735.50830078125	120.8174819946289	1120.524658203125	881.302734375	1028.91162109375	1087.811767578125	822.7340698242188	919.8722534179688	1033.18994140625	639.0194091796875	42.65940093994141	1083.899536132813	663.4064331054688	57.3038330078125	1044.915161132813	649.6728515625	91.33309936523438	1085.583251953125	751.7503051757813	471.3138122558594	1035.5693359375	810.3380737304688	1089.391235351563	1050.096923828125	756.9760131835938	537.7108764648438	1040.806884765625	761.7421875	517.8120727539063	1161.971801757813	864.8716430664063	54.45298385620117	1124.951049804688	876.6176147460938	66.31760406494141	1077.388671875	836.27197265625	49.43484115600586	1009.188720703125	706.9357299804688	1043.281372070313	1152.183227539063	707.5756225585938	189.0504760742188	1035.285766601563	672.6731567382813	193.1292572021484	1077.881225585938	705.0858764648438	269.064208984375	1026.380126953125	672.5751342773438	273.6669006347656	1069.598510742188	778.9699096679688	646.4567260742188	1026.660400390625	717.9081420898438	647.2354736328125	1066.73974609375	772.9441528320313	756.6245727539063	1021.722534179688	718.8692626953125	757.7672729492188	1064.703369140625	813.7047729492188	456.0231018066406	1080.929443359375	714.2181396484375	107.7791442871094	1416.008911132813	736.5592041015625	126.0782089233398	1334.048217773438	863.6074829101563	1033.166381835938	1342.67626953125	803.0159912109375	924.6563110351563	1397.228271484375	640.0528564453125	43.89850616455078	1374.704956054688	666.7180786132813	64.32993316650391	1414.694946289063	650.8230590820313	93.75971221923828	1373.669555664063	750.9473266601563	476.629150390625	1409.188842773438	797.5245971679688	1081.751586914063	1368.784790039063	760.4375	539.0255126953125	1402.753662109375	764.6290283203125	523.30810546875	1280.587890625	861.8722534179688	57.80462646484375	1327.24853515625	870.5325927734375	71.47907257080078	1372.98681640625	841.9534912109375	49.22671127319336	1444.393432617188	699.5401000976563	1046.865234375	1253.861450195313	701.3896484375	182.2559967041016	1414.09130859375	669.4990844726563	190.8083038330078	1374.951416015625	705.5543212890625	266.5027770996094	1425.382446289063	671.5333251953125	270.22314453125	1383.939331054688	759.460693359375	655.2750244140625	1407.956665039063	707.3198852539063	655.3839111328125	1355.322875976563	754.755859375	764.7944946289063	1409.000854492188	706.51806640625	765.9431762695313	1359.567626953125	812.4039306640625	460.3320922851563	1371.94921875	
59	0.3866666666666667	714.02685546875	107.4630737304688	1037.255981445313	735.5167236328125	120.8084716796875	1120.524047851563	881.2994384765625	1028.913208007813	1087.800415039063	822.7338256835938	919.8793334960938	1033.179077148438	639.011962890625	42.66218948364258	1083.897338867188	663.4051513671875	57.30847549438477	1044.918823242188	649.6692504882813	91.33779907226563	1085.586669921875	751.748291015625	471.3041687011719	1035.5439453125	810.3381958007813	1089.385131835938	1050.0908203125	756.9866943359375	537.7103271484375	1040.7900390625	761.7417602539063	517.8134155273438	1161.961059570313	864.8627319335938	54.44819259643555	1124.961669921875	876.608154296875	66.31634521484375	1077.390014648438	836.2666015625	49.43335723876953	1009.185363769531	706.9290771484375	1043.267456054688	1152.150024414063	707.5759887695313	189.0442962646484	1035.2822265625	672.6634521484375	193.1308441162109	1077.880859375	705.099365234375	269.0564270019531	1026.369750976563	672.5771484375	273.6630249023438	1069.590942382813	778.96923828125	646.4481201171875	1026.641723632813	717.9192504882813	647.2281494140625	1066.721435546875	772.945556640625	756.6200561523438	1021.70166015625	718.874755859375	757.7670288085938	1064.666625976563	813.7058715820313	456.0211181640625	1080.928466796875	714.2222290039063	107.7732009887695	1416.018798828125	736.5421752929688	126.0886306762695	1334.038452148438	863.5859375	1033.1669921875	1342.65869140625	802.9781494140625	924.6567993164063	1397.216552734375	640.0587158203125	43.88445663452148	1374.706909179688	666.7235107421875	64.32462310791016	1414.7021484375	650.8192749023438	93.75052642822266	1373.669067382813	750.9261474609375	476.6339111328125	1409.18408203125	797.4819946289063	1081.736694335938	1368.759521484375	760.40185546875	539.02001953125	1402.737426757813	764.5991821289063	523.3060302734375	1280.581420898438	861.8614501953125	57.80594635009766	1327.262817382813	870.5274658203125	71.479736328125	1373.001586914063	841.96044921875	49.21603012084961	1444.385131835938	699.5220947265625	1046.860717773438	1253.823852539063	701.3856201171875	182.2486877441406	1414.097290039063	669.489013671875	190.7990417480469	1374.955078125	705.5440673828125	266.5012512207031	1425.384155273438	671.5245971679688	270.2105102539063	1383.94091796875	759.4158325195313	655.2727661132813	1407.942504882813	707.2875366210938	655.3877563476563	1355.305786132813	754.7239379882813	764.7918090820313	1408.98583984375	706.4899291992188	765.9503173828125	1359.542846679688	812.382568359375	460.3519287109375	1371.940795898438	
60	0.3933333333333334	714.0239868164063	107.4574966430664	1037.255615234375	735.5105590820313	120.8125	1120.526611328125	881.294677734375	1028.915405273438	1087.783203125	822.7440795898438	919.8707275390625	1033.164916992188	639.0131225585938	42.65647506713867	1083.895385742188	663.4037475585938	57.29956436157227	1044.912109375	649.671875	91.32780456542969	1085.586791992188	751.75634765625	471.3034362792969	1035.529418945313	810.328369140625	1089.387573242188	1050.072265625	757.0033569335938	537.701171875	1040.765747070313	761.7545776367188	517.8029174804688	1161.948852539063	864.8572387695313	54.45063781738281	1124.958618164063	876.6141357421875	66.31868743896484	1077.394165039063	836.2695922851563	49.43045043945313	1009.186584472656	706.911376953125	1043.2548828125	1152.110107421875	707.578369140625	189.0407562255859	1035.27294921875	672.6641845703125	193.1260528564453	1077.871337890625	705.0992431640625	269.0440979003906	1026.359375	672.5818481445313	273.6598205566406	1069.5771484375	778.9771118164063	646.4423828125	1026.623046875	717.9256591796875	647.2232055664063	1066.701049804688	772.9606323242188	756.6131591796875	1021.689819335938	718.8798217773438	757.7603149414063	1064.63671875	813.7098388671875	456.0089721679688	1080.924926757813	714.2205200195313	107.7680130004883	1416.0224609375	736.5439453125	126.0838317871094	1334.044555664063	863.5602416992188	1033.170166015625	1342.640991210938	802.9383544921875	924.6577758789063	1397.185424804688	640.0469970703125	43.88647079467773	1374.712158203125	666.7180786132813	64.31613922119141	1414.701782226563	650.8132934570313	93.745849609375	1373.675415039063	750.9052734375	476.6185607910156	1409.162109375	797.43603515625	1081.725219726563	1368.735473632813	760.3744506835938	539.028076171875	1402.726440429688	764.5849609375	523.3075561523438	1280.560302734375	861.8748779296875	57.80092620849609	1327.253051757813	870.5315551757813	71.48136901855469	1372.996459960938	841.9558715820313	49.21974563598633	1444.391235351563	699.4940795898438	1046.848876953125	1253.790405273438	701.3827514648438	182.2512817382813	1414.1015625	669.4812622070313	190.7928161621094	1374.968139648438	705.5338745117188	266.4924926757813	1425.379760742188	671.5055541992188	270.2063293457031	1383.942138671875	759.3836059570313	655.27294921875	1407.923461914063	707.2586059570313	655.3904418945313	1355.288940429688	754.688232421875	764.7977294921875	1408.959106445313	706.46533203125	765.9522705078125	1359.51318359375	812.344970703125	460.3435668945313	1371.927490234375	
